<mxfile host="app.diagrams.net" modified="2021-06-30T16:51:55.278Z" agent="5.0 (X11; Linux x86_64) AppleWebKit/537.36 (KHTML, like Gecko) Chrome/91.0.4472.114 Safari/537.36" etag="xU0EkYFEqc7hzx4UNuf4" version="14.8.3" type="github">
  <diagram id="C5RBs43oDa-KdzZeNtuy" name="Page-1">
    <mxGraphModel dx="1394" dy="2954" grid="1" gridSize="10" guides="1" tooltips="1" connect="1" arrows="1" fold="1" page="0" pageScale="1" pageWidth="827" pageHeight="1169" background="none" math="0" shadow="0">
      <root>
        <mxCell id="WIyWlLk6GJQsqaUBKTNV-0" />
        <mxCell id="WIyWlLk6GJQsqaUBKTNV-1" parent="WIyWlLk6GJQsqaUBKTNV-0" />
        <mxCell id="WIyWlLk6GJQsqaUBKTNV-3" value="&lt;font style=&quot;font-size: 13px&quot;&gt;Switch&lt;br&gt;(choice)&lt;/font&gt;" style="whiteSpace=wrap;html=1;fontSize=12;glass=0;strokeWidth=1;shadow=0;fillColor=#fff2cc;strokeColor=#d6b656;gradientColor=#ffd966;rounded=1;" parent="WIyWlLk6GJQsqaUBKTNV-1" vertex="1">
          <mxGeometry x="160" y="-1760" width="120" height="40" as="geometry" />
        </mxCell>
        <mxCell id="14BzKTtDmi_PYct_4-pI-210" value="" style="edgeStyle=orthogonalEdgeStyle;rounded=1;orthogonalLoop=1;jettySize=auto;html=1;" parent="WIyWlLk6GJQsqaUBKTNV-1" source="WIyWlLk6GJQsqaUBKTNV-10" edge="1">
          <mxGeometry relative="1" as="geometry">
            <mxPoint x="220" y="-1450" as="targetPoint" />
          </mxGeometry>
        </mxCell>
        <mxCell id="WIyWlLk6GJQsqaUBKTNV-10" value="&lt;font style=&quot;font-size: 13px&quot;&gt;Case 1&lt;/font&gt;" style="rhombus;whiteSpace=wrap;html=1;shadow=0;fontFamily=Helvetica;fontSize=12;align=center;strokeWidth=1;spacing=6;spacingTop=-4;fillColor=#f5f5f5;strokeColor=#666666;gradientColor=#b3b3b3;rounded=1;" parent="WIyWlLk6GJQsqaUBKTNV-1" vertex="1">
          <mxGeometry x="169.99" y="-1661" width="100" height="80" as="geometry" />
        </mxCell>
        <mxCell id="WIyWlLk6GJQsqaUBKTNV-12" value="&lt;font style=&quot;font-size: 13px&quot;&gt;Invoke addBettor() &amp;amp;&amp;nbsp;&lt;br&gt;provide Joining Bonus&lt;br&gt;&lt;/font&gt;" style="whiteSpace=wrap;html=1;fontSize=12;glass=0;strokeWidth=1;shadow=0;fillColor=#fff2cc;strokeColor=#d6b656;gradientColor=#ffd966;rounded=1;" parent="WIyWlLk6GJQsqaUBKTNV-1" vertex="1">
          <mxGeometry x="366" y="-1651" width="154" height="59" as="geometry" />
        </mxCell>
        <mxCell id="14BzKTtDmi_PYct_4-pI-8" value="&lt;font style=&quot;font-size: 13px&quot;&gt;Case 2&lt;/font&gt;" style="rhombus;whiteSpace=wrap;html=1;shadow=0;fontFamily=Helvetica;fontSize=12;align=center;strokeWidth=1;spacing=6;spacingTop=-4;fillColor=#f5f5f5;strokeColor=#666666;gradientColor=#b3b3b3;rounded=1;" parent="WIyWlLk6GJQsqaUBKTNV-1" vertex="1">
          <mxGeometry x="170" y="-1449" width="100" height="80" as="geometry" />
        </mxCell>
        <mxCell id="14BzKTtDmi_PYct_4-pI-9" value="&lt;font style=&quot;font-size: 13px&quot;&gt;Case 3&lt;/font&gt;" style="rhombus;whiteSpace=wrap;html=1;shadow=0;fontFamily=Helvetica;fontSize=12;align=center;strokeWidth=1;spacing=6;spacingTop=-4;fillColor=#f5f5f5;strokeColor=#666666;gradientColor=#b3b3b3;rounded=1;" parent="WIyWlLk6GJQsqaUBKTNV-1" vertex="1">
          <mxGeometry x="170" y="-1160" width="100" height="80" as="geometry" />
        </mxCell>
        <mxCell id="14BzKTtDmi_PYct_4-pI-11" value="&lt;font style=&quot;font-size: 13px&quot;&gt;Case 4&lt;/font&gt;" style="rhombus;whiteSpace=wrap;html=1;shadow=0;fontFamily=Helvetica;fontSize=12;align=center;strokeWidth=1;spacing=6;spacingTop=-4;fillColor=#f5f5f5;strokeColor=#666666;gradientColor=#b3b3b3;rounded=1;" parent="WIyWlLk6GJQsqaUBKTNV-1" vertex="1">
          <mxGeometry x="170" y="-962" width="100" height="80" as="geometry" />
        </mxCell>
        <mxCell id="14BzKTtDmi_PYct_4-pI-12" value="&lt;font style=&quot;font-size: 13px&quot;&gt;Case 5&lt;/font&gt;" style="rhombus;whiteSpace=wrap;html=1;shadow=0;fontFamily=Helvetica;fontSize=12;align=center;strokeWidth=1;spacing=6;spacingTop=-4;fillColor=#f5f5f5;strokeColor=#666666;gradientColor=#b3b3b3;rounded=1;" parent="WIyWlLk6GJQsqaUBKTNV-1" vertex="1">
          <mxGeometry x="170" y="-679" width="100" height="80" as="geometry" />
        </mxCell>
        <mxCell id="14BzKTtDmi_PYct_4-pI-45" value="&lt;font style=&quot;font-size: 13px&quot;&gt;Case 6&lt;/font&gt;" style="rhombus;whiteSpace=wrap;html=1;shadow=0;fontFamily=Helvetica;fontSize=12;align=center;strokeWidth=1;spacing=6;spacingTop=-4;fillColor=#f5f5f5;strokeColor=#666666;gradientColor=#b3b3b3;rounded=1;" parent="WIyWlLk6GJQsqaUBKTNV-1" vertex="1">
          <mxGeometry x="170" y="-467" width="100" height="80" as="geometry" />
        </mxCell>
        <mxCell id="14BzKTtDmi_PYct_4-pI-47" value="&lt;font style=&quot;font-size: 13px&quot;&gt;Enter main()&lt;/font&gt;" style="whiteSpace=wrap;html=1;fontSize=12;glass=0;strokeWidth=1;shadow=0;fillColor=#fff2cc;strokeColor=#d6b656;gradientColor=#ffd966;rounded=1;" parent="WIyWlLk6GJQsqaUBKTNV-1" vertex="1">
          <mxGeometry x="160" y="-2236" width="120" height="40" as="geometry" />
        </mxCell>
        <mxCell id="14BzKTtDmi_PYct_4-pI-56" value="&lt;font style=&quot;font-size: 13px&quot;&gt;Invoke handleResult(). It randomly chooses the result bet value &amp;amp; sends payout to all the winners.&lt;/font&gt;" style="whiteSpace=wrap;html=1;fontSize=12;glass=0;strokeWidth=1;shadow=0;fillColor=#fff2cc;strokeColor=#d6b656;gradientColor=#ffd966;rounded=1;" parent="WIyWlLk6GJQsqaUBKTNV-1" vertex="1">
          <mxGeometry x="800" y="-474" width="250" height="91" as="geometry" />
        </mxCell>
        <mxCell id="14BzKTtDmi_PYct_4-pI-57" value="&lt;font style=&quot;font-size: 13px&quot;&gt;Invoke getLpBalance()&lt;/font&gt;" style="whiteSpace=wrap;html=1;fontSize=12;glass=0;strokeWidth=1;shadow=0;fillColor=#fff2cc;strokeColor=#d6b656;gradientColor=#ffd966;rounded=1;" parent="WIyWlLk6GJQsqaUBKTNV-1" vertex="1">
          <mxGeometry x="798.75" y="-659" width="121.25" height="40" as="geometry" />
        </mxCell>
        <mxCell id="14BzKTtDmi_PYct_4-pI-58" value="&lt;font style=&quot;font-size: 13px&quot;&gt;Invoke provideLiquidity()&lt;/font&gt;" style="whiteSpace=wrap;html=1;fontSize=12;glass=0;strokeWidth=1;shadow=0;fillColor=#fff2cc;strokeColor=#d6b656;gradientColor=#ffd966;rounded=1;" parent="WIyWlLk6GJQsqaUBKTNV-1" vertex="1">
          <mxGeometry x="1010" y="-838" width="130" height="40" as="geometry" />
        </mxCell>
        <mxCell id="14BzKTtDmi_PYct_4-pI-60" value="&lt;font style=&quot;font-size: 13px&quot;&gt;Invoke addBettor() &amp;amp; provide Joining Bonus&lt;/font&gt;" style="whiteSpace=wrap;html=1;fontSize=12;glass=0;strokeWidth=1;shadow=0;fillColor=#fff2cc;strokeColor=#d6b656;gradientColor=#ffd966;rounded=1;" parent="WIyWlLk6GJQsqaUBKTNV-1" vertex="1">
          <mxGeometry x="804.12" y="-1555" width="146" height="60" as="geometry" />
        </mxCell>
        <mxCell id="14BzKTtDmi_PYct_4-pI-66" value="&lt;font style=&quot;font-size: 13px&quot;&gt;Start Program&lt;br&gt;&lt;/font&gt;" style="ellipse;whiteSpace=wrap;html=1;fillColor=#d5e8d4;strokeColor=#82b366;gradientColor=#97d077;rounded=1;" parent="WIyWlLk6GJQsqaUBKTNV-1" vertex="1">
          <mxGeometry x="160" y="-2376" width="120" height="80" as="geometry" />
        </mxCell>
        <mxCell id="14BzKTtDmi_PYct_4-pI-67" value="&lt;font style=&quot;font-size: 13px&quot;&gt;End Program&lt;br&gt;&lt;/font&gt;" style="ellipse;whiteSpace=wrap;html=1;fillColor=#d5e8d4;strokeColor=#82b366;gradientColor=#97d077;rounded=1;" parent="WIyWlLk6GJQsqaUBKTNV-1" vertex="1">
          <mxGeometry x="594" y="-307" width="120" height="80" as="geometry" />
        </mxCell>
        <mxCell id="14BzKTtDmi_PYct_4-pI-69" value="&lt;font style=&quot;font-size: 13px&quot;&gt;Read configuration from json file&lt;/font&gt;" style="shape=parallelogram;perimeter=parallelogramPerimeter;whiteSpace=wrap;html=1;fixedSize=1;fillColor=#dae8fc;strokeColor=#6c8ebf;gradientColor=#7ea6e0;rounded=1;" parent="WIyWlLk6GJQsqaUBKTNV-1" vertex="1">
          <mxGeometry x="104.36999999999999" y="-2136" width="231.25" height="60" as="geometry" />
        </mxCell>
        <mxCell id="14BzKTtDmi_PYct_4-pI-70" value="&lt;font style=&quot;font-size: 13px&quot;&gt;Ask user for the choice&lt;/font&gt;" style="shape=parallelogram;perimeter=parallelogramPerimeter;whiteSpace=wrap;html=1;fixedSize=1;fillColor=#dae8fc;strokeColor=#6c8ebf;gradientColor=#7ea6e0;rounded=1;" parent="WIyWlLk6GJQsqaUBKTNV-1" vertex="1">
          <mxGeometry x="132.5" y="-1880" width="175" height="60" as="geometry" />
        </mxCell>
        <mxCell id="14BzKTtDmi_PYct_4-pI-94" value="" style="edgeStyle=elbowEdgeStyle;elbow=horizontal;endArrow=classic;html=1;exitX=1;exitY=0.5;exitDx=0;exitDy=0;entryX=1;entryY=0.5;entryDx=0;entryDy=0;" parent="WIyWlLk6GJQsqaUBKTNV-1" source="14BzKTtDmi_PYct_4-pI-56" target="14BzKTtDmi_PYct_4-pI-100" edge="1">
          <mxGeometry width="50" height="50" relative="1" as="geometry">
            <mxPoint x="820" y="-627" as="sourcePoint" />
            <mxPoint x="280" y="-1980" as="targetPoint" />
            <Array as="points">
              <mxPoint x="1430" y="-1310" />
              <mxPoint x="1450" y="-1270" />
              <mxPoint x="1740" y="-1370" />
              <mxPoint x="1540" y="-1280" />
              <mxPoint x="1500" y="-1270" />
              <mxPoint x="1360" y="-1280" />
              <mxPoint x="1240" y="-1350" />
              <mxPoint x="1250" y="-1490" />
              <mxPoint x="1370" y="-1410" />
              <mxPoint x="1220" y="-1260" />
              <mxPoint x="1130" y="-1240" />
              <mxPoint x="920" y="-1686" />
              <mxPoint x="920" y="-1657" />
              <mxPoint x="960" y="-1737" />
              <mxPoint x="934" y="-1697" />
              <mxPoint x="934" y="-427" />
            </Array>
          </mxGeometry>
        </mxCell>
        <mxCell id="14BzKTtDmi_PYct_4-pI-100" value="&lt;font style=&quot;font-size: 13px&quot;&gt;Infinite loop&lt;/font&gt;" style="rhombus;whiteSpace=wrap;html=1;shadow=0;fontFamily=Helvetica;fontSize=12;align=center;strokeWidth=1;spacing=6;spacingTop=-4;fillColor=#f5f5f5;strokeColor=#666666;gradientColor=#b3b3b3;rounded=1;" parent="WIyWlLk6GJQsqaUBKTNV-1" vertex="1">
          <mxGeometry x="170" y="-2020" width="100" height="81" as="geometry" />
        </mxCell>
        <mxCell id="14BzKTtDmi_PYct_4-pI-108" value="&lt;font style=&quot;font-size: 13px&quot;&gt;Read bettorID&lt;/font&gt;" style="shape=parallelogram;perimeter=parallelogramPerimeter;whiteSpace=wrap;html=1;fixedSize=1;rounded=1;glass=0;strokeColor=#6c8ebf;gradientColor=#7ea6e0;fillColor=#dae8fc;" parent="WIyWlLk6GJQsqaUBKTNV-1" vertex="1">
          <mxGeometry x="362.25" y="-1437" width="118.75" height="60" as="geometry" />
        </mxCell>
        <mxCell id="14BzKTtDmi_PYct_4-pI-109" value="&lt;font style=&quot;font-size: 13px&quot;&gt;Read betValue&lt;/font&gt;" style="shape=parallelogram;perimeter=parallelogramPerimeter;whiteSpace=wrap;html=1;fixedSize=1;rounded=1;glass=0;strokeColor=#6c8ebf;gradientColor=#7ea6e0;fillColor=#dae8fc;" parent="WIyWlLk6GJQsqaUBKTNV-1" vertex="1">
          <mxGeometry x="799" y="-1330" width="128.75" height="60" as="geometry" />
        </mxCell>
        <mxCell id="14BzKTtDmi_PYct_4-pI-118" value="&lt;font style=&quot;font-size: 13px&quot;&gt;Read bettorID&lt;/font&gt;" style="shape=parallelogram;perimeter=parallelogramPerimeter;whiteSpace=wrap;html=1;fixedSize=1;rounded=1;glass=0;strokeColor=#6c8ebf;gradientColor=#7ea6e0;fillColor=#dae8fc;" parent="WIyWlLk6GJQsqaUBKTNV-1" vertex="1">
          <mxGeometry x="573.63" y="-1147" width="126.37" height="60" as="geometry" />
        </mxCell>
        <mxCell id="14BzKTtDmi_PYct_4-pI-120" value="&lt;font style=&quot;font-size: 13px&quot;&gt;Read lpID&lt;/font&gt;" style="shape=parallelogram;perimeter=parallelogramPerimeter;whiteSpace=wrap;html=1;fixedSize=1;rounded=1;glass=0;strokeColor=#6c8ebf;gradientColor=#7ea6e0;fillColor=#dae8fc;" parent="WIyWlLk6GJQsqaUBKTNV-1" vertex="1">
          <mxGeometry x="605.25" y="-669" width="108.75" height="60" as="geometry" />
        </mxCell>
        <mxCell id="14BzKTtDmi_PYct_4-pI-122" value="&lt;font style=&quot;font-size: 13px&quot;&gt;Read lpID&lt;/font&gt;" style="shape=parallelogram;perimeter=parallelogramPerimeter;whiteSpace=wrap;html=1;fixedSize=1;rounded=1;glass=0;strokeColor=#6c8ebf;gradientColor=#7ea6e0;fillColor=#dae8fc;" parent="WIyWlLk6GJQsqaUBKTNV-1" vertex="1">
          <mxGeometry x="363.25" y="-952" width="108.75" height="60" as="geometry" />
        </mxCell>
        <mxCell id="14BzKTtDmi_PYct_4-pI-124" value="&lt;font style=&quot;font-size: 13px&quot;&gt;Read amount&lt;/font&gt;" style="shape=parallelogram;perimeter=parallelogramPerimeter;whiteSpace=wrap;html=1;fixedSize=1;rounded=1;glass=0;strokeColor=#6c8ebf;gradientColor=#7ea6e0;fillColor=#dae8fc;" parent="WIyWlLk6GJQsqaUBKTNV-1" vertex="1">
          <mxGeometry x="801" y="-848" width="120" height="60" as="geometry" />
        </mxCell>
        <mxCell id="14BzKTtDmi_PYct_4-pI-126" value="&lt;font style=&quot;font-size: 13px&quot;&gt;Read resultBetValue&lt;/font&gt;" style="shape=parallelogram;perimeter=parallelogramPerimeter;whiteSpace=wrap;html=1;fixedSize=1;rounded=1;glass=0;strokeColor=#6c8ebf;gradientColor=#7ea6e0;fillColor=#dae8fc;" parent="WIyWlLk6GJQsqaUBKTNV-1" vertex="1">
          <mxGeometry x="583.25" y="-457" width="118.75" height="60" as="geometry" />
        </mxCell>
        <mxCell id="14BzKTtDmi_PYct_4-pI-142" value="" style="edgeStyle=elbowEdgeStyle;elbow=horizontal;endArrow=classic;html=1;exitX=1;exitY=0.5;exitDx=0;exitDy=0;" parent="WIyWlLk6GJQsqaUBKTNV-1" source="14BzKTtDmi_PYct_4-pI-57" edge="1">
          <mxGeometry width="50" height="50" relative="1" as="geometry">
            <mxPoint x="780" y="-639.5" as="sourcePoint" />
            <mxPoint x="1430" y="-639" as="targetPoint" />
          </mxGeometry>
        </mxCell>
        <mxCell id="14BzKTtDmi_PYct_4-pI-143" value="" style="edgeStyle=elbowEdgeStyle;elbow=horizontal;endArrow=classic;html=1;startArrow=none;" parent="WIyWlLk6GJQsqaUBKTNV-1" source="14BzKTtDmi_PYct_4-pI-59" edge="1">
          <mxGeometry width="50" height="50" relative="1" as="geometry">
            <mxPoint x="700" y="-1117" as="sourcePoint" />
            <mxPoint x="1430" y="-1117" as="targetPoint" />
          </mxGeometry>
        </mxCell>
        <mxCell id="14BzKTtDmi_PYct_4-pI-145" value="" style="edgeStyle=elbowEdgeStyle;elbow=horizontal;endArrow=classic;html=1;entryX=0;entryY=0.5;entryDx=0;entryDy=0;exitX=0.5;exitY=0;exitDx=0;exitDy=0;" parent="WIyWlLk6GJQsqaUBKTNV-1" source="14BzKTtDmi_PYct_4-pI-228" target="14BzKTtDmi_PYct_4-pI-60" edge="1">
          <mxGeometry width="50" height="50" relative="1" as="geometry">
            <mxPoint x="660" y="-1450" as="sourcePoint" />
            <mxPoint x="804" y="-1540" as="targetPoint" />
            <Array as="points">
              <mxPoint x="640" y="-1540" />
              <mxPoint x="660" y="-1510" />
              <mxPoint x="660" y="-1460" />
              <mxPoint x="660" y="-1460" />
              <mxPoint x="660" y="-1540" />
            </Array>
          </mxGeometry>
        </mxCell>
        <mxCell id="14BzKTtDmi_PYct_4-pI-146" value="" style="edgeStyle=elbowEdgeStyle;elbow=horizontal;endArrow=classic;html=1;" parent="WIyWlLk6GJQsqaUBKTNV-1" edge="1">
          <mxGeometry width="50" height="50" relative="1" as="geometry">
            <mxPoint x="920" y="-1301" as="sourcePoint" />
            <mxPoint x="1002" y="-1301" as="targetPoint" />
          </mxGeometry>
        </mxCell>
        <mxCell id="14BzKTtDmi_PYct_4-pI-148" value="" style="edgeStyle=elbowEdgeStyle;elbow=horizontal;endArrow=classic;html=1;exitX=1;exitY=0.5;exitDx=0;exitDy=0;" parent="WIyWlLk6GJQsqaUBKTNV-1" source="14BzKTtDmi_PYct_4-pI-58" edge="1">
          <mxGeometry width="50" height="50" relative="1" as="geometry">
            <mxPoint x="830" y="-823.5" as="sourcePoint" />
            <mxPoint x="1430" y="-818" as="targetPoint" />
            <Array as="points" />
          </mxGeometry>
        </mxCell>
        <mxCell id="14BzKTtDmi_PYct_4-pI-152" value="&lt;font style=&quot;font-size: 13px&quot;&gt;Yes&lt;/font&gt;" style="text;html=1;align=center;verticalAlign=middle;resizable=0;points=[];autosize=1;strokeColor=none;" parent="WIyWlLk6GJQsqaUBKTNV-1" vertex="1">
          <mxGeometry x="290" y="-1640" width="40" height="20" as="geometry" />
        </mxCell>
        <mxCell id="14BzKTtDmi_PYct_4-pI-154" value="" style="edgeStyle=elbowEdgeStyle;elbow=horizontal;endArrow=classic;html=1;" parent="WIyWlLk6GJQsqaUBKTNV-1" edge="1">
          <mxGeometry width="50" height="50" relative="1" as="geometry">
            <mxPoint x="267" y="-1117" as="sourcePoint" />
            <mxPoint x="344" y="-1117.5" as="targetPoint" />
          </mxGeometry>
        </mxCell>
        <mxCell id="14BzKTtDmi_PYct_4-pI-155" value="&lt;span style=&quot;font-size: 13px&quot;&gt;Yes&lt;/span&gt;" style="text;html=1;align=center;verticalAlign=middle;resizable=0;points=[];autosize=1;strokeColor=none;" parent="WIyWlLk6GJQsqaUBKTNV-1" vertex="1">
          <mxGeometry x="287" y="-1140" width="40" height="20" as="geometry" />
        </mxCell>
        <mxCell id="14BzKTtDmi_PYct_4-pI-156" value="" style="edgeStyle=elbowEdgeStyle;elbow=horizontal;endArrow=classic;html=1;entryX=0;entryY=0.5;entryDx=0;entryDy=0;" parent="WIyWlLk6GJQsqaUBKTNV-1" target="14BzKTtDmi_PYct_4-pI-59" edge="1">
          <mxGeometry width="50" height="50" relative="1" as="geometry">
            <mxPoint x="708" y="-1118" as="sourcePoint" />
            <mxPoint x="811" y="-1117" as="targetPoint" />
            <Array as="points">
              <mxPoint x="690" y="-1117" />
            </Array>
          </mxGeometry>
        </mxCell>
        <mxCell id="14BzKTtDmi_PYct_4-pI-157" value="" style="edgeStyle=elbowEdgeStyle;elbow=horizontal;endArrow=classic;html=1;" parent="WIyWlLk6GJQsqaUBKTNV-1" edge="1">
          <mxGeometry width="50" height="50" relative="1" as="geometry">
            <mxPoint x="480" y="-922.5" as="sourcePoint" />
            <mxPoint x="550" y="-922" as="targetPoint" />
            <Array as="points">
              <mxPoint x="460" y="-922" />
            </Array>
          </mxGeometry>
        </mxCell>
        <mxCell id="14BzKTtDmi_PYct_4-pI-159" value="" style="edgeStyle=elbowEdgeStyle;elbow=horizontal;endArrow=classic;html=1;entryX=0;entryY=0.5;entryDx=0;entryDy=0;exitX=1;exitY=0.5;exitDx=0;exitDy=0;" parent="WIyWlLk6GJQsqaUBKTNV-1" source="14BzKTtDmi_PYct_4-pI-124" edge="1">
          <mxGeometry width="50" height="50" relative="1" as="geometry">
            <mxPoint x="931.25" y="-818.5" as="sourcePoint" />
            <mxPoint x="1010" y="-818" as="targetPoint" />
            <Array as="points" />
          </mxGeometry>
        </mxCell>
        <mxCell id="14BzKTtDmi_PYct_4-pI-160" value="" style="edgeStyle=elbowEdgeStyle;elbow=horizontal;endArrow=classic;html=1;entryX=0;entryY=0.5;entryDx=0;entryDy=0;" parent="WIyWlLk6GJQsqaUBKTNV-1" target="14BzKTtDmi_PYct_4-pI-57" edge="1">
          <mxGeometry width="50" height="50" relative="1" as="geometry">
            <mxPoint x="739" y="-639" as="sourcePoint" />
            <mxPoint x="790" y="-638" as="targetPoint" />
            <Array as="points">
              <mxPoint x="698" y="-638" />
            </Array>
          </mxGeometry>
        </mxCell>
        <mxCell id="14BzKTtDmi_PYct_4-pI-161" value="" style="edgeStyle=elbowEdgeStyle;elbow=horizontal;endArrow=classic;html=1;" parent="WIyWlLk6GJQsqaUBKTNV-1" target="14BzKTtDmi_PYct_4-pI-56" edge="1">
          <mxGeometry width="50" height="50" relative="1" as="geometry">
            <mxPoint x="692" y="-427.5" as="sourcePoint" />
            <mxPoint x="770.75" y="-427" as="targetPoint" />
            <Array as="points" />
          </mxGeometry>
        </mxCell>
        <mxCell id="14BzKTtDmi_PYct_4-pI-163" value="" style="edgeStyle=elbowEdgeStyle;elbow=horizontal;endArrow=classic;html=1;entryX=0;entryY=0.5;entryDx=0;entryDy=0;" parent="WIyWlLk6GJQsqaUBKTNV-1" target="esYO1Zt6UV-87OCzxN87-1" edge="1">
          <mxGeometry width="50" height="50" relative="1" as="geometry">
            <mxPoint x="270" y="-427" as="sourcePoint" />
            <mxPoint x="350" y="-427" as="targetPoint" />
            <Array as="points">
              <mxPoint x="280" y="-427" />
            </Array>
          </mxGeometry>
        </mxCell>
        <mxCell id="14BzKTtDmi_PYct_4-pI-164" value="&lt;span style=&quot;font-size: 13px&quot;&gt;Yes&lt;/span&gt;" style="text;html=1;align=center;verticalAlign=middle;resizable=0;points=[];autosize=1;strokeColor=none;" parent="WIyWlLk6GJQsqaUBKTNV-1" vertex="1">
          <mxGeometry x="292" y="-445" width="40" height="20" as="geometry" />
        </mxCell>
        <mxCell id="14BzKTtDmi_PYct_4-pI-165" value="" style="edgeStyle=elbowEdgeStyle;elbow=horizontal;endArrow=classic;html=1;entryX=0;entryY=0.5;entryDx=0;entryDy=0;" parent="WIyWlLk6GJQsqaUBKTNV-1" edge="1">
          <mxGeometry width="50" height="50" relative="1" as="geometry">
            <mxPoint x="276.18" y="-639" as="sourcePoint" />
            <mxPoint x="358" y="-637.75" as="targetPoint" />
            <Array as="points">
              <mxPoint x="265.81" y="-640" />
            </Array>
          </mxGeometry>
        </mxCell>
        <mxCell id="14BzKTtDmi_PYct_4-pI-166" value="&lt;font style=&quot;font-size: 13px&quot;&gt;Yes&lt;/font&gt;" style="text;html=1;align=center;verticalAlign=middle;resizable=0;points=[];autosize=1;strokeColor=none;" parent="WIyWlLk6GJQsqaUBKTNV-1" vertex="1">
          <mxGeometry x="290" y="-659" width="40" height="20" as="geometry" />
        </mxCell>
        <mxCell id="14BzKTtDmi_PYct_4-pI-167" value="" style="edgeStyle=segmentEdgeStyle;endArrow=classic;html=1;" parent="WIyWlLk6GJQsqaUBKTNV-1" edge="1">
          <mxGeometry width="50" height="50" relative="1" as="geometry">
            <mxPoint x="220" y="-2296" as="sourcePoint" />
            <mxPoint x="219.5" y="-2237" as="targetPoint" />
          </mxGeometry>
        </mxCell>
        <mxCell id="14BzKTtDmi_PYct_4-pI-180" value="" style="edgeStyle=segmentEdgeStyle;endArrow=classic;html=1;" parent="WIyWlLk6GJQsqaUBKTNV-1" edge="1">
          <mxGeometry width="50" height="50" relative="1" as="geometry">
            <mxPoint x="220" y="-2196" as="sourcePoint" />
            <mxPoint x="219.5" y="-2137" as="targetPoint" />
          </mxGeometry>
        </mxCell>
        <mxCell id="14BzKTtDmi_PYct_4-pI-181" value="" style="edgeStyle=segmentEdgeStyle;endArrow=classic;html=1;" parent="WIyWlLk6GJQsqaUBKTNV-1" edge="1">
          <mxGeometry width="50" height="50" relative="1" as="geometry">
            <mxPoint x="220" y="-2075" as="sourcePoint" />
            <mxPoint x="219.5" y="-2016" as="targetPoint" />
          </mxGeometry>
        </mxCell>
        <mxCell id="14BzKTtDmi_PYct_4-pI-182" value="" style="edgeStyle=segmentEdgeStyle;endArrow=classic;html=1;" parent="WIyWlLk6GJQsqaUBKTNV-1" edge="1">
          <mxGeometry width="50" height="50" relative="1" as="geometry">
            <mxPoint x="219.99" y="-1939" as="sourcePoint" />
            <mxPoint x="219.49" y="-1880" as="targetPoint" />
          </mxGeometry>
        </mxCell>
        <mxCell id="14BzKTtDmi_PYct_4-pI-183" value="" style="edgeStyle=segmentEdgeStyle;endArrow=classic;html=1;" parent="WIyWlLk6GJQsqaUBKTNV-1" edge="1">
          <mxGeometry width="50" height="50" relative="1" as="geometry">
            <mxPoint x="219.99" y="-1820" as="sourcePoint" />
            <mxPoint x="219.49" y="-1761" as="targetPoint" />
          </mxGeometry>
        </mxCell>
        <mxCell id="14BzKTtDmi_PYct_4-pI-184" value="" style="edgeStyle=segmentEdgeStyle;endArrow=classic;html=1;" parent="WIyWlLk6GJQsqaUBKTNV-1" edge="1">
          <mxGeometry width="50" height="50" relative="1" as="geometry">
            <mxPoint x="219.99" y="-1720" as="sourcePoint" />
            <mxPoint x="219.49" y="-1661" as="targetPoint" />
          </mxGeometry>
        </mxCell>
        <mxCell id="14BzKTtDmi_PYct_4-pI-185" value="" style="edgeStyle=segmentEdgeStyle;endArrow=classic;html=1;entryX=0.5;entryY=0;entryDx=0;entryDy=0;" parent="WIyWlLk6GJQsqaUBKTNV-1" target="14BzKTtDmi_PYct_4-pI-9" edge="1">
          <mxGeometry width="50" height="50" relative="1" as="geometry">
            <mxPoint x="218.5" y="-1369" as="sourcePoint" />
            <mxPoint x="220" y="-1218" as="targetPoint" />
          </mxGeometry>
        </mxCell>
        <mxCell id="14BzKTtDmi_PYct_4-pI-186" value="" style="edgeStyle=segmentEdgeStyle;endArrow=classic;html=1;" parent="WIyWlLk6GJQsqaUBKTNV-1" edge="1">
          <mxGeometry width="50" height="50" relative="1" as="geometry">
            <mxPoint x="220" y="-1080" as="sourcePoint" />
            <mxPoint x="220" y="-960" as="targetPoint" />
          </mxGeometry>
        </mxCell>
        <mxCell id="14BzKTtDmi_PYct_4-pI-187" value="" style="edgeStyle=segmentEdgeStyle;endArrow=classic;html=1;entryX=0.5;entryY=0;entryDx=0;entryDy=0;exitX=0.5;exitY=1;exitDx=0;exitDy=0;" parent="WIyWlLk6GJQsqaUBKTNV-1" source="14BzKTtDmi_PYct_4-pI-11" target="14BzKTtDmi_PYct_4-pI-12" edge="1">
          <mxGeometry width="50" height="50" relative="1" as="geometry">
            <mxPoint x="220" y="-870" as="sourcePoint" />
            <mxPoint x="219.5" y="-811" as="targetPoint" />
          </mxGeometry>
        </mxCell>
        <mxCell id="14BzKTtDmi_PYct_4-pI-188" value="" style="edgeStyle=segmentEdgeStyle;endArrow=classic;html=1;exitX=0.5;exitY=1;exitDx=0;exitDy=0;entryX=0.5;entryY=0;entryDx=0;entryDy=0;" parent="WIyWlLk6GJQsqaUBKTNV-1" source="14BzKTtDmi_PYct_4-pI-12" target="14BzKTtDmi_PYct_4-pI-45" edge="1">
          <mxGeometry width="50" height="50" relative="1" as="geometry">
            <mxPoint x="221" y="-553" as="sourcePoint" />
            <mxPoint x="221" y="-494" as="targetPoint" />
          </mxGeometry>
        </mxCell>
        <mxCell id="14BzKTtDmi_PYct_4-pI-195" value="" style="edgeStyle=elbowEdgeStyle;elbow=horizontal;endArrow=classic;html=1;exitX=1;exitY=0.5;exitDx=0;exitDy=0;entryX=0;entryY=0.5;entryDx=0;entryDy=0;" parent="WIyWlLk6GJQsqaUBKTNV-1" source="14BzKTtDmi_PYct_4-pI-11" target="14BzKTtDmi_PYct_4-pI-122" edge="1">
          <mxGeometry width="50" height="50" relative="1" as="geometry">
            <mxPoint x="280" y="-922.5" as="sourcePoint" />
            <mxPoint x="340" y="-922" as="targetPoint" />
            <Array as="points" />
          </mxGeometry>
        </mxCell>
        <mxCell id="14BzKTtDmi_PYct_4-pI-196" value="&lt;font style=&quot;font-size: 13px&quot;&gt;Yes&lt;/font&gt;" style="text;html=1;align=center;verticalAlign=middle;resizable=0;points=[];autosize=1;strokeColor=none;" parent="WIyWlLk6GJQsqaUBKTNV-1" vertex="1">
          <mxGeometry x="289" y="-942" width="40" height="20" as="geometry" />
        </mxCell>
        <mxCell id="14BzKTtDmi_PYct_4-pI-211" value="&lt;font style=&quot;font-size: 13px&quot;&gt;No&lt;/font&gt;" style="text;html=1;align=center;verticalAlign=middle;resizable=0;points=[];autosize=1;strokeColor=none;" parent="WIyWlLk6GJQsqaUBKTNV-1" vertex="1">
          <mxGeometry x="219" y="-1527" width="30" height="20" as="geometry" />
        </mxCell>
        <mxCell id="14BzKTtDmi_PYct_4-pI-212" value="&lt;font style=&quot;font-size: 13px&quot;&gt;No&lt;/font&gt;" style="text;html=1;align=center;verticalAlign=middle;resizable=0;points=[];autosize=1;strokeColor=none;" parent="WIyWlLk6GJQsqaUBKTNV-1" vertex="1">
          <mxGeometry x="222" y="-1290" width="30" height="20" as="geometry" />
        </mxCell>
        <mxCell id="14BzKTtDmi_PYct_4-pI-213" value="No" style="text;html=1;align=center;verticalAlign=middle;resizable=0;points=[];autosize=1;strokeColor=none;" parent="WIyWlLk6GJQsqaUBKTNV-1" vertex="1">
          <mxGeometry x="219" y="-1038" width="30" height="20" as="geometry" />
        </mxCell>
        <mxCell id="14BzKTtDmi_PYct_4-pI-215" value="&lt;font style=&quot;font-size: 13px&quot;&gt;No&lt;/font&gt;" style="text;html=1;align=center;verticalAlign=middle;resizable=0;points=[];autosize=1;strokeColor=none;" parent="WIyWlLk6GJQsqaUBKTNV-1" vertex="1">
          <mxGeometry x="221" y="-798" width="30" height="20" as="geometry" />
        </mxCell>
        <mxCell id="14BzKTtDmi_PYct_4-pI-216" value="&lt;font style=&quot;font-size: 13px&quot;&gt;No&lt;/font&gt;" style="text;html=1;align=center;verticalAlign=middle;resizable=0;points=[];autosize=1;strokeColor=none;" parent="WIyWlLk6GJQsqaUBKTNV-1" vertex="1">
          <mxGeometry x="221" y="-537" width="30" height="20" as="geometry" />
        </mxCell>
        <mxCell id="14BzKTtDmi_PYct_4-pI-219" value="&lt;font style=&quot;font-size: 13px&quot;&gt;No&lt;/font&gt;" style="text;html=1;align=center;verticalAlign=middle;resizable=0;points=[];autosize=1;strokeColor=none;" parent="WIyWlLk6GJQsqaUBKTNV-1" vertex="1">
          <mxGeometry x="220" y="-360" width="30" height="20" as="geometry" />
        </mxCell>
        <mxCell id="14BzKTtDmi_PYct_4-pI-221" value="" style="edgeStyle=segmentEdgeStyle;endArrow=classic;html=1;" parent="WIyWlLk6GJQsqaUBKTNV-1" edge="1">
          <mxGeometry width="50" height="50" relative="1" as="geometry">
            <mxPoint x="219" y="-389" as="sourcePoint" />
            <mxPoint x="219" y="-307" as="targetPoint" />
          </mxGeometry>
        </mxCell>
        <mxCell id="14BzKTtDmi_PYct_4-pI-222" value="&lt;span style=&quot;font-size: 13px&quot;&gt;Default&lt;/span&gt;" style="rhombus;whiteSpace=wrap;html=1;shadow=0;fontFamily=Helvetica;fontSize=12;align=center;strokeWidth=1;spacing=6;spacingTop=-4;fillColor=#f5f5f5;strokeColor=#666666;gradientColor=#b3b3b3;rounded=1;" parent="WIyWlLk6GJQsqaUBKTNV-1" vertex="1">
          <mxGeometry x="170" y="-309" width="100" height="80" as="geometry" />
        </mxCell>
        <mxCell id="14BzKTtDmi_PYct_4-pI-251" value="" style="edgeStyle=orthogonalEdgeStyle;rounded=1;orthogonalLoop=1;jettySize=auto;html=1;" parent="WIyWlLk6GJQsqaUBKTNV-1" source="14BzKTtDmi_PYct_4-pI-225" target="14BzKTtDmi_PYct_4-pI-67" edge="1">
          <mxGeometry relative="1" as="geometry" />
        </mxCell>
        <mxCell id="14BzKTtDmi_PYct_4-pI-225" value="&lt;font style=&quot;font-size: 13px&quot;&gt;Any other key pressed&lt;/font&gt;" style="whiteSpace=wrap;html=1;fontSize=12;glass=0;strokeWidth=1;shadow=0;fillColor=#fff2cc;strokeColor=#d6b656;gradientColor=#ffd966;rounded=1;" parent="WIyWlLk6GJQsqaUBKTNV-1" vertex="1">
          <mxGeometry x="366" y="-287" width="120" height="40" as="geometry" />
        </mxCell>
        <mxCell id="14BzKTtDmi_PYct_4-pI-226" value="" style="edgeStyle=elbowEdgeStyle;elbow=horizontal;endArrow=classic;html=1;" parent="WIyWlLk6GJQsqaUBKTNV-1" edge="1">
          <mxGeometry width="50" height="50" relative="1" as="geometry">
            <mxPoint x="277" y="-267.5" as="sourcePoint" />
            <mxPoint x="367" y="-267" as="targetPoint" />
            <Array as="points">
              <mxPoint x="262" y="-267" />
            </Array>
          </mxGeometry>
        </mxCell>
        <mxCell id="14BzKTtDmi_PYct_4-pI-227" value="" style="edgeStyle=elbowEdgeStyle;elbow=horizontal;endArrow=classic;html=1;entryX=0;entryY=0.5;entryDx=0;entryDy=0;" parent="WIyWlLk6GJQsqaUBKTNV-1" edge="1">
          <mxGeometry width="50" height="50" relative="1" as="geometry">
            <mxPoint x="514" y="-267.5" as="sourcePoint" />
            <mxPoint x="592.75" y="-267" as="targetPoint" />
            <Array as="points">
              <mxPoint x="490" y="-267" />
            </Array>
          </mxGeometry>
        </mxCell>
        <mxCell id="14BzKTtDmi_PYct_4-pI-228" value="&lt;font style=&quot;font-size: 13px&quot;&gt;Does this bettor &lt;br&gt;exists?&lt;br&gt;&lt;/font&gt;" style="rhombus;whiteSpace=wrap;html=1;shadow=0;fontFamily=Helvetica;fontSize=12;align=center;strokeWidth=1;spacing=6;spacingTop=-4;fillColor=#f5f5f5;strokeColor=#666666;gradientColor=#b3b3b3;rounded=1;" parent="WIyWlLk6GJQsqaUBKTNV-1" vertex="1">
          <mxGeometry x="564.63" y="-1467.5" width="156" height="121" as="geometry" />
        </mxCell>
        <mxCell id="14BzKTtDmi_PYct_4-pI-229" value="" style="edgeStyle=elbowEdgeStyle;elbow=horizontal;endArrow=classic;html=1;entryX=0;entryY=0.5;entryDx=0;entryDy=0;" parent="WIyWlLk6GJQsqaUBKTNV-1" target="14BzKTtDmi_PYct_4-pI-109" edge="1">
          <mxGeometry width="50" height="50" relative="1" as="geometry">
            <mxPoint x="640" y="-1350" as="sourcePoint" />
            <mxPoint x="770" y="-1300" as="targetPoint" />
            <Array as="points">
              <mxPoint x="640" y="-1330" />
              <mxPoint x="661" y="-1350" />
              <mxPoint x="661" y="-1309" />
            </Array>
          </mxGeometry>
        </mxCell>
        <mxCell id="14BzKTtDmi_PYct_4-pI-230" value="&lt;font style=&quot;font-size: 13px&quot;&gt;Invoke placeBet(). It adds bet amount to liquidity pool &amp;amp; cancels bet if balance of the bettor is less than bet amount&lt;/font&gt;" style="whiteSpace=wrap;html=1;fontSize=12;glass=0;strokeWidth=1;shadow=0;fillColor=#fff2cc;strokeColor=#d6b656;gradientColor=#ffd966;rounded=1;" parent="WIyWlLk6GJQsqaUBKTNV-1" vertex="1">
          <mxGeometry x="1198" y="-1350" width="162" height="105" as="geometry" />
        </mxCell>
        <mxCell id="14BzKTtDmi_PYct_4-pI-235" value="" style="edgeStyle=orthogonalEdgeStyle;rounded=1;orthogonalLoop=1;jettySize=auto;html=1;" parent="WIyWlLk6GJQsqaUBKTNV-1" edge="1">
          <mxGeometry relative="1" as="geometry">
            <mxPoint x="866" y="-1492" as="sourcePoint" />
            <mxPoint x="866" y="-1332" as="targetPoint" />
          </mxGeometry>
        </mxCell>
        <mxCell id="14BzKTtDmi_PYct_4-pI-236" value="&lt;span style=&quot;font-size: 13px&quot;&gt;No&lt;/span&gt;" style="text;html=1;align=center;verticalAlign=middle;resizable=0;points=[];autosize=1;strokeColor=none;" parent="WIyWlLk6GJQsqaUBKTNV-1" vertex="1">
          <mxGeometry x="688" y="-1544" width="30" height="20" as="geometry" />
        </mxCell>
        <mxCell id="14BzKTtDmi_PYct_4-pI-239" value="&lt;font style=&quot;font-size: 13px&quot;&gt;Yes&lt;/font&gt;" style="text;html=1;align=center;verticalAlign=middle;resizable=0;points=[];autosize=1;strokeColor=none;" parent="WIyWlLk6GJQsqaUBKTNV-1" vertex="1">
          <mxGeometry x="689" y="-1320" width="40" height="20" as="geometry" />
        </mxCell>
        <mxCell id="14BzKTtDmi_PYct_4-pI-240" value="" style="edgeStyle=elbowEdgeStyle;elbow=horizontal;endArrow=classic;html=1;" parent="WIyWlLk6GJQsqaUBKTNV-1" edge="1">
          <mxGeometry width="50" height="50" relative="1" as="geometry">
            <mxPoint x="1360" y="-1300" as="sourcePoint" />
            <mxPoint x="1430" y="-1300" as="targetPoint" />
          </mxGeometry>
        </mxCell>
        <mxCell id="14BzKTtDmi_PYct_4-pI-244" value="" style="edgeStyle=elbowEdgeStyle;elbow=horizontal;endArrow=classic;html=1;exitX=1;exitY=0.5;exitDx=0;exitDy=0;" parent="WIyWlLk6GJQsqaUBKTNV-1" source="WIyWlLk6GJQsqaUBKTNV-12" edge="1">
          <mxGeometry width="50" height="50" relative="1" as="geometry">
            <mxPoint x="650" y="-1621.67" as="sourcePoint" />
            <mxPoint x="1430" y="-1622" as="targetPoint" />
          </mxGeometry>
        </mxCell>
        <mxCell id="14BzKTtDmi_PYct_4-pI-246" value="" style="edgeStyle=elbowEdgeStyle;elbow=horizontal;endArrow=classic;html=1;" parent="WIyWlLk6GJQsqaUBKTNV-1" edge="1">
          <mxGeometry width="50" height="50" relative="1" as="geometry">
            <mxPoint x="270" y="-1408" as="sourcePoint" />
            <mxPoint x="372" y="-1408.5" as="targetPoint" />
          </mxGeometry>
        </mxCell>
        <mxCell id="14BzKTtDmi_PYct_4-pI-247" value="&lt;span style=&quot;font-size: 13px&quot;&gt;Yes&lt;/span&gt;" style="text;html=1;align=center;verticalAlign=middle;resizable=0;points=[];autosize=1;strokeColor=none;" parent="WIyWlLk6GJQsqaUBKTNV-1" vertex="1">
          <mxGeometry x="290" y="-1430" width="40" height="20" as="geometry" />
        </mxCell>
        <mxCell id="14BzKTtDmi_PYct_4-pI-250" value="" style="edgeStyle=elbowEdgeStyle;elbow=horizontal;endArrow=classic;html=1;exitX=1;exitY=0.5;exitDx=0;exitDy=0;" parent="WIyWlLk6GJQsqaUBKTNV-1" edge="1">
          <mxGeometry width="50" height="50" relative="1" as="geometry">
            <mxPoint x="266.99" y="-1621" as="sourcePoint" />
            <mxPoint x="366.99" y="-1621.5" as="targetPoint" />
          </mxGeometry>
        </mxCell>
        <mxCell id="14BzKTtDmi_PYct_4-pI-252" value="" style="edgeStyle=elbowEdgeStyle;elbow=horizontal;endArrow=classic;html=1;entryX=0;entryY=0.5;entryDx=0;entryDy=0;" parent="WIyWlLk6GJQsqaUBKTNV-1" edge="1">
          <mxGeometry width="50" height="50" relative="1" as="geometry">
            <mxPoint x="490.25" y="-1407.5" as="sourcePoint" />
            <mxPoint x="569" y="-1407" as="targetPoint" />
            <Array as="points">
              <mxPoint x="468.25" y="-1406.5" />
            </Array>
          </mxGeometry>
        </mxCell>
        <mxCell id="14BzKTtDmi_PYct_4-pI-59" value="&lt;font style=&quot;font-size: 13px&quot;&gt;Invoke getBalance()&lt;/font&gt;" style="whiteSpace=wrap;html=1;fontSize=12;glass=0;strokeWidth=1;shadow=0;fillColor=#fff2cc;strokeColor=#d6b656;gradientColor=#ffd966;rounded=1;" parent="WIyWlLk6GJQsqaUBKTNV-1" vertex="1">
          <mxGeometry x="801" y="-1137" width="141.25" height="40" as="geometry" />
        </mxCell>
        <mxCell id="14BzKTtDmi_PYct_4-pI-253" value="" style="edgeStyle=elbowEdgeStyle;elbow=horizontal;endArrow=none;html=1;" parent="WIyWlLk6GJQsqaUBKTNV-1" target="14BzKTtDmi_PYct_4-pI-59" edge="1">
          <mxGeometry width="50" height="50" relative="1" as="geometry">
            <mxPoint x="1020" y="-1117" as="sourcePoint" />
            <mxPoint x="1240" y="-1117" as="targetPoint" />
          </mxGeometry>
        </mxCell>
        <mxCell id="14BzKTtDmi_PYct_4-pI-254" value="&lt;font style=&quot;font-size: 13px&quot;&gt;Does any bettor exist?&lt;br&gt;&lt;/font&gt;" style="rhombus;whiteSpace=wrap;html=1;shadow=0;fontFamily=Helvetica;fontSize=12;align=center;strokeWidth=1;spacing=6;spacingTop=-4;fillColor=#f5f5f5;strokeColor=#666666;gradientColor=#b3b3b3;rounded=1;" parent="WIyWlLk6GJQsqaUBKTNV-1" vertex="1">
          <mxGeometry x="341.13" y="-1182" width="161" height="130" as="geometry" />
        </mxCell>
        <mxCell id="14BzKTtDmi_PYct_4-pI-257" value="&lt;font style=&quot;font-size: 13px&quot;&gt;Yes&lt;/font&gt;" style="text;html=1;align=center;verticalAlign=middle;resizable=0;points=[];autosize=1;strokeColor=none;" parent="WIyWlLk6GJQsqaUBKTNV-1" vertex="1">
          <mxGeometry x="511" y="-1140" width="40" height="20" as="geometry" />
        </mxCell>
        <mxCell id="14BzKTtDmi_PYct_4-pI-258" value="&lt;font style=&quot;font-size: 13px&quot;&gt;No&lt;/font&gt;" style="text;html=1;align=center;verticalAlign=middle;resizable=0;points=[];autosize=1;strokeColor=none;" parent="WIyWlLk6GJQsqaUBKTNV-1" vertex="1">
          <mxGeometry x="511" y="-1234" width="30" height="20" as="geometry" />
        </mxCell>
        <mxCell id="14BzKTtDmi_PYct_4-pI-260" value="" style="edgeStyle=elbowEdgeStyle;elbow=horizontal;endArrow=classic;html=1;startArrow=none;exitX=1;exitY=0.5;exitDx=0;exitDy=0;" parent="WIyWlLk6GJQsqaUBKTNV-1" source="14BzKTtDmi_PYct_4-pI-254" edge="1">
          <mxGeometry width="50" height="50" relative="1" as="geometry">
            <mxPoint x="520" y="-1120" as="sourcePoint" />
            <mxPoint x="582.6300000000001" y="-1117" as="targetPoint" />
            <Array as="points" />
          </mxGeometry>
        </mxCell>
        <mxCell id="14BzKTtDmi_PYct_4-pI-262" value="" style="edgeStyle=elbowEdgeStyle;elbow=vertical;endArrow=classic;html=1;exitX=0.5;exitY=0;exitDx=0;exitDy=0;" parent="WIyWlLk6GJQsqaUBKTNV-1" source="14BzKTtDmi_PYct_4-pI-254" edge="1">
          <mxGeometry width="50" height="50" relative="1" as="geometry">
            <mxPoint x="426" y="-1190" as="sourcePoint" />
            <mxPoint x="1120" y="-1118" as="targetPoint" />
            <Array as="points">
              <mxPoint x="1140" y="-1214" />
            </Array>
          </mxGeometry>
        </mxCell>
        <mxCell id="14BzKTtDmi_PYct_4-pI-263" value="&lt;font style=&quot;font-size: 13px&quot;&gt;Does this liquidity &lt;br&gt;provider exist?&lt;br&gt;&lt;/font&gt;" style="rhombus;whiteSpace=wrap;html=1;shadow=0;fontFamily=Helvetica;fontSize=12;align=center;strokeWidth=1;spacing=6;spacingTop=-4;fillColor=#f5f5f5;strokeColor=#666666;gradientColor=#b3b3b3;rounded=1;" parent="WIyWlLk6GJQsqaUBKTNV-1" vertex="1">
          <mxGeometry x="548" y="-991" width="174" height="140" as="geometry" />
        </mxCell>
        <mxCell id="14BzKTtDmi_PYct_4-pI-266" value="" style="edgeStyle=elbowEdgeStyle;elbow=horizontal;endArrow=classic;html=1;entryX=0;entryY=0.5;entryDx=0;entryDy=0;" parent="WIyWlLk6GJQsqaUBKTNV-1" target="14BzKTtDmi_PYct_4-pI-269" edge="1">
          <mxGeometry width="50" height="50" relative="1" as="geometry">
            <mxPoint x="635" y="-991" as="sourcePoint" />
            <mxPoint x="800" y="-1031" as="targetPoint" />
            <Array as="points">
              <mxPoint x="635" y="-1010" />
              <mxPoint x="640" y="-1030" />
            </Array>
          </mxGeometry>
        </mxCell>
        <mxCell id="14BzKTtDmi_PYct_4-pI-267" value="&lt;font style=&quot;font-size: 13px&quot;&gt;No&lt;/font&gt;" style="text;html=1;align=center;verticalAlign=middle;resizable=0;points=[];autosize=1;strokeColor=none;" parent="WIyWlLk6GJQsqaUBKTNV-1" vertex="1">
          <mxGeometry x="685" y="-1052" width="30" height="20" as="geometry" />
        </mxCell>
        <mxCell id="14BzKTtDmi_PYct_4-pI-268" value="" style="edgeStyle=elbowEdgeStyle;elbow=horizontal;endArrow=classic;html=1;entryX=0;entryY=0.5;entryDx=0;entryDy=0;" parent="WIyWlLk6GJQsqaUBKTNV-1" target="14BzKTtDmi_PYct_4-pI-124" edge="1">
          <mxGeometry width="50" height="50" relative="1" as="geometry">
            <mxPoint x="634.02" y="-853" as="sourcePoint" />
            <mxPoint x="805" y="-819" as="targetPoint" />
            <Array as="points">
              <mxPoint x="634" y="-830" />
            </Array>
          </mxGeometry>
        </mxCell>
        <mxCell id="14BzKTtDmi_PYct_4-pI-269" value="&lt;font style=&quot;font-size: 13px&quot;&gt;Invoke addLProvider()&lt;/font&gt;" style="whiteSpace=wrap;html=1;fontSize=12;glass=0;strokeWidth=1;shadow=0;fillColor=#fff2cc;strokeColor=#d6b656;gradientColor=#ffd966;rounded=1;" parent="WIyWlLk6GJQsqaUBKTNV-1" vertex="1">
          <mxGeometry x="806.25" y="-1050" width="141.75" height="40" as="geometry" />
        </mxCell>
        <mxCell id="14BzKTtDmi_PYct_4-pI-272" value="" style="edgeStyle=orthogonalEdgeStyle;rounded=1;orthogonalLoop=1;jettySize=auto;html=1;exitX=0.379;exitY=1.05;exitDx=0;exitDy=0;exitPerimeter=0;" parent="WIyWlLk6GJQsqaUBKTNV-1" source="14BzKTtDmi_PYct_4-pI-269" edge="1">
          <mxGeometry relative="1" as="geometry">
            <mxPoint x="860.5" y="-1001" as="sourcePoint" />
            <mxPoint x="861" y="-850" as="targetPoint" />
            <Array as="points">
              <mxPoint x="861" y="-1008" />
              <mxPoint x="861" y="-954" />
            </Array>
          </mxGeometry>
        </mxCell>
        <mxCell id="14BzKTtDmi_PYct_4-pI-274" value="&lt;span style=&quot;font-size: 13px&quot;&gt;Yes&lt;/span&gt;" style="text;html=1;align=center;verticalAlign=middle;resizable=0;points=[];autosize=1;strokeColor=none;" parent="WIyWlLk6GJQsqaUBKTNV-1" vertex="1">
          <mxGeometry x="690" y="-843" width="40" height="20" as="geometry" />
        </mxCell>
        <mxCell id="esYO1Zt6UV-87OCzxN87-1" value="&lt;font style=&quot;font-size: 13px&quot;&gt;Is any bet placed?&lt;br&gt;&lt;/font&gt;" style="rhombus;whiteSpace=wrap;html=1;shadow=0;fontFamily=Helvetica;fontSize=12;align=center;strokeWidth=1;spacing=6;spacingTop=-4;fillColor=#f5f5f5;strokeColor=#666666;gradientColor=#b3b3b3;rounded=1;" parent="WIyWlLk6GJQsqaUBKTNV-1" vertex="1">
          <mxGeometry x="354.63" y="-483" width="138.37" height="113" as="geometry" />
        </mxCell>
        <mxCell id="esYO1Zt6UV-87OCzxN87-2" value="" style="edgeStyle=elbowEdgeStyle;elbow=horizontal;endArrow=classic;html=1;entryX=0;entryY=0.5;entryDx=0;entryDy=0;" parent="WIyWlLk6GJQsqaUBKTNV-1" target="14BzKTtDmi_PYct_4-pI-126" edge="1">
          <mxGeometry width="50" height="50" relative="1" as="geometry">
            <mxPoint x="494" y="-427" as="sourcePoint" />
            <mxPoint x="572.75" y="-424.5" as="targetPoint" />
            <Array as="points" />
          </mxGeometry>
        </mxCell>
        <mxCell id="esYO1Zt6UV-87OCzxN87-5" value="&lt;font style=&quot;font-size: 13px&quot;&gt;Yes&lt;/font&gt;" style="text;html=1;align=center;verticalAlign=middle;resizable=0;points=[];autosize=1;strokeColor=none;" parent="WIyWlLk6GJQsqaUBKTNV-1" vertex="1">
          <mxGeometry x="510" y="-446" width="40" height="20" as="geometry" />
        </mxCell>
        <mxCell id="esYO1Zt6UV-87OCzxN87-6" value="" style="edgeStyle=elbowEdgeStyle;elbow=vertical;endArrow=classic;html=1;exitX=0.5;exitY=0;exitDx=0;exitDy=0;" parent="WIyWlLk6GJQsqaUBKTNV-1" source="esYO1Zt6UV-87OCzxN87-1" edge="1">
          <mxGeometry width="50" height="50" relative="1" as="geometry">
            <mxPoint x="420" y="-487" as="sourcePoint" />
            <mxPoint x="1120" y="-426" as="targetPoint" />
            <Array as="points">
              <mxPoint x="1030" y="-523" />
              <mxPoint x="1134" y="-523" />
            </Array>
          </mxGeometry>
        </mxCell>
        <mxCell id="esYO1Zt6UV-87OCzxN87-7" value="&lt;font style=&quot;font-size: 13px&quot;&gt;No&lt;/font&gt;" style="text;html=1;align=center;verticalAlign=middle;resizable=0;points=[];autosize=1;strokeColor=none;" parent="WIyWlLk6GJQsqaUBKTNV-1" vertex="1">
          <mxGeometry x="511" y="-542" width="30" height="20" as="geometry" />
        </mxCell>
        <mxCell id="qh4iLybn8iXByUFfvt8Q-0" value="&lt;font style=&quot;font-size: 13px&quot;&gt;Does any Liquidity&amp;nbsp;&lt;br&gt;Provider exist?&lt;br&gt;&lt;/font&gt;" style="rhombus;whiteSpace=wrap;html=1;shadow=0;fontFamily=Helvetica;fontSize=12;align=center;strokeWidth=1;spacing=6;spacingTop=-4;fillColor=#f5f5f5;strokeColor=#666666;gradientColor=#b3b3b3;rounded=1;" parent="WIyWlLk6GJQsqaUBKTNV-1" vertex="1">
          <mxGeometry x="354" y="-700" width="167" height="123.5" as="geometry" />
        </mxCell>
        <mxCell id="qh4iLybn8iXByUFfvt8Q-1" value="" style="edgeStyle=elbowEdgeStyle;elbow=horizontal;endArrow=classic;html=1;entryX=0;entryY=0.5;entryDx=0;entryDy=0;" parent="WIyWlLk6GJQsqaUBKTNV-1" target="14BzKTtDmi_PYct_4-pI-120" edge="1">
          <mxGeometry width="50" height="50" relative="1" as="geometry">
            <mxPoint x="525" y="-639" as="sourcePoint" />
            <mxPoint x="600.25" y="-639" as="targetPoint" />
            <Array as="points">
              <mxPoint x="515" y="-639" />
            </Array>
          </mxGeometry>
        </mxCell>
        <mxCell id="qh4iLybn8iXByUFfvt8Q-3" value="" style="edgeStyle=elbowEdgeStyle;elbow=vertical;endArrow=classic;html=1;" parent="WIyWlLk6GJQsqaUBKTNV-1" edge="1">
          <mxGeometry width="50" height="50" relative="1" as="geometry">
            <mxPoint x="435" y="-699" as="sourcePoint" />
            <mxPoint x="1120" y="-640" as="targetPoint" />
            <Array as="points">
              <mxPoint x="1149" y="-746" />
            </Array>
          </mxGeometry>
        </mxCell>
        <mxCell id="qh4iLybn8iXByUFfvt8Q-4" value="No" style="text;html=1;align=center;verticalAlign=middle;resizable=0;points=[];autosize=1;strokeColor=none;" parent="WIyWlLk6GJQsqaUBKTNV-1" vertex="1">
          <mxGeometry x="533" y="-767" width="30" height="20" as="geometry" />
        </mxCell>
        <mxCell id="qh4iLybn8iXByUFfvt8Q-5" value="Yes" style="text;html=1;align=center;verticalAlign=middle;resizable=0;points=[];autosize=1;strokeColor=none;" parent="WIyWlLk6GJQsqaUBKTNV-1" vertex="1">
          <mxGeometry x="528" y="-660" width="40" height="20" as="geometry" />
        </mxCell>
        <mxCell id="0ZtEhdhOnSyB7qFyyHqs-0" value="&lt;font style=&quot;font-size: 13px&quot;&gt;Read betAmount&lt;/font&gt;" style="shape=parallelogram;perimeter=parallelogramPerimeter;whiteSpace=wrap;html=1;fixedSize=1;rounded=1;glass=0;strokeColor=#6c8ebf;gradientColor=#7ea6e0;fillColor=#dae8fc;" parent="WIyWlLk6GJQsqaUBKTNV-1" vertex="1">
          <mxGeometry x="992" y="-1329" width="140" height="60" as="geometry" />
        </mxCell>
        <mxCell id="0ZtEhdhOnSyB7qFyyHqs-1" value="" style="edgeStyle=elbowEdgeStyle;elbow=horizontal;endArrow=classic;html=1;entryX=0.012;entryY=0.486;entryDx=0;entryDy=0;entryPerimeter=0;" parent="WIyWlLk6GJQsqaUBKTNV-1" target="14BzKTtDmi_PYct_4-pI-230" edge="1">
          <mxGeometry width="50" height="50" relative="1" as="geometry">
            <mxPoint x="1124" y="-1299.5" as="sourcePoint" />
            <mxPoint x="1190" y="-1299" as="targetPoint" />
          </mxGeometry>
        </mxCell>
      </root>
    </mxGraphModel>
  </diagram>
</mxfile>
